HIERARCHY
ROOT Hips
{
	OFFSET -14.64140 90.27770 -84.91600
	CHANNELS 6 Xposition Yposition Zposition Zrotation Xrotation Yrotation
	JOINT Spine
	{
		OFFSET 0.00000 13.20850 -1.60436
		CHANNELS 3 Zrotation Xrotation Yrotation
		JOINT Spine1
		{
			OFFSET 0.00000 8.61716 0.00000
			CHANNELS 3 Zrotation Xrotation Yrotation
			JOINT Spine2
			{
				OFFSET 0.00000 8.61717 0.00000
				CHANNELS 3 Zrotation Xrotation Yrotation
				JOINT Spine3
				{
					OFFSET 0.00000 8.61717 0.00000
					CHANNELS 3 Zrotation Xrotation Yrotation
					JOINT Neck
					{
						OFFSET 0.00000 11.07920 1.10792
						CHANNELS 3 Zrotation Xrotation Yrotation
						JOINT Neck1
						{
							OFFSET 0.00000 7.08032 0.00000
							CHANNELS 3 Zrotation Xrotation Yrotation
							JOINT Head
							{
								OFFSET 0.00000 7.08031 0.00000
								CHANNELS 3 Zrotation Xrotation Yrotation
								End site
								{
									OFFSET 0.00000 0.00000 0.00000
								}
							}
						}
					}
					JOINT RightShoulder
					{
						OFFSET -0.01000 7.91373 5.19711
						CHANNELS 3 Zrotation Xrotation Yrotation
						JOINT RightArm
						{
							OFFSET -18.41580 0.00000 0.00000
							CHANNELS 3 Zrotation Xrotation Yrotation
							JOINT RightForeArm
							{
								OFFSET -29.11090 0.00000 0.00000
								CHANNELS 3 Zrotation Xrotation Yrotation
								JOINT RightHand
								{
									OFFSET -24.65040 0.00000 0.00000
									CHANNELS 3 Zrotation Xrotation Yrotation
									JOINT RightHandThumb1
									{
										OFFSET -5.35114 -0.85590 3.97906
										CHANNELS 3 Zrotation Xrotation Yrotation
										JOINT RightHandThumb2
										{
											OFFSET -4.52789 0.00000 0.00000
											CHANNELS 3 Zrotation Xrotation Yrotation
											JOINT RightHandThumb3
											{
												OFFSET -2.46976 0.00000 0.00000
												CHANNELS 3 Zrotation Xrotation Yrotation
												End site
												{
													OFFSET 0.00000 0.00000 0.00000
												}
											}
										}
									}
									JOINT RightHandIndex1
									{
										OFFSET -14.26970 0.00000 2.88139
										CHANNELS 3 Zrotation Xrotation Yrotation
										JOINT RightHandIndex2
										{
											OFFSET -5.48836 0.00000 0.00000
											CHANNELS 3 Zrotation Xrotation Yrotation
											JOINT RightHandIndex3
											{
												OFFSET -3.01859 0.00000 0.00000
												CHANNELS 3 Zrotation Xrotation Yrotation
												End site
												{
													OFFSET 0.00000 0.00000 0.00000
												}
											}
										}
									}
									JOINT RightHandMiddle1
									{
										OFFSET -14.26970 0.00000 -0.09147
										CHANNELS 3 Zrotation Xrotation Yrotation
										JOINT RightHandMiddle2
										{
											OFFSET -6.17441 0.00000 0.00000
											CHANNELS 3 Zrotation Xrotation Yrotation
											JOINT RightHandMiddle3
											{
												OFFSET -3.56743 0.00000 0.00000
												CHANNELS 3 Zrotation Xrotation Yrotation
												End site
												{
													OFFSET 0.00000 0.00000 0.00000
												}
											}
										}
									}
									JOINT RightHandRing1
									{
										OFFSET -12.69180 0.00000 -3.06433
										CHANNELS 3 Zrotation Xrotation Yrotation
										JOINT RightHandRing2
										{
											OFFSET -5.62556 0.00000 0.00000
											CHANNELS 3 Zrotation Xrotation Yrotation
											JOINT RightHandRing3
											{
												OFFSET -3.56744 0.00000 0.00000
												CHANNELS 3 Zrotation Xrotation Yrotation
												End site
												{
													OFFSET 0.00000 0.00000 0.00000
												}
											}
										}
									}
									JOINT RightHandPinky1
									{
										OFFSET -11.11390 0.00000 -6.03719
										CHANNELS 3 Zrotation Xrotation Yrotation
										JOINT RightHandPinky2
										{
											OFFSET -4.52789 0.00000 0.00000
											CHANNELS 3 Zrotation Xrotation Yrotation
											JOINT RightHandPinky3
											{
												OFFSET -2.46976 0.00000 0.00000
												CHANNELS 3 Zrotation Xrotation Yrotation
												End site
												{
													OFFSET 0.00000 0.00000 0.00000
												}
											}
										}
									}
								}
							}
						}
					}
					JOINT LeftShoulder
					{
						OFFSET 0.01000 7.91373 5.19711
						CHANNELS 3 Zrotation Xrotation Yrotation
						JOINT LeftArm
						{
							OFFSET 18.41580 0.00000 0.00000
							CHANNELS 3 Zrotation Xrotation Yrotation
							JOINT LeftForeArm
							{
								OFFSET 29.11090 0.00000 0.00000
								CHANNELS 3 Zrotation Xrotation Yrotation
								JOINT LeftHand
								{
									OFFSET 24.65040 0.00000 0.00000
									CHANNELS 3 Zrotation Xrotation Yrotation
									JOINT LeftHandThumb1
									{
										OFFSET 5.35114 -0.85590 3.97906
										CHANNELS 3 Zrotation Xrotation Yrotation
										JOINT LeftHandThumb2
										{
											OFFSET 4.52789 0.00000 0.00000
											CHANNELS 3 Zrotation Xrotation Yrotation
											JOINT LeftHandThumb3
											{
												OFFSET 2.46977 0.00000 0.00000
												CHANNELS 3 Zrotation Xrotation Yrotation
												End site
												{
													OFFSET 0.00000 0.00000 0.00000
												}
											}
										}
									}
									JOINT LeftHandIndex1
									{
										OFFSET 14.26970 0.00000 2.88139
										CHANNELS 3 Zrotation Xrotation Yrotation
										JOINT LeftHandIndex2
										{
											OFFSET 5.48836 0.00000 0.00000
											CHANNELS 3 Zrotation Xrotation Yrotation
											JOINT LeftHandIndex3
											{
												OFFSET 3.01859 0.00000 0.00000
												CHANNELS 3 Zrotation Xrotation Yrotation
												End site
												{
													OFFSET 0.00000 0.00000 0.00000
												}
											}
										}
									}
									JOINT LeftHandMiddle1
									{
										OFFSET 14.26970 0.00000 -0.09147
										CHANNELS 3 Zrotation Xrotation Yrotation
										JOINT LeftHandMiddle2
										{
											OFFSET 6.17440 0.00000 0.00000
											CHANNELS 3 Zrotation Xrotation Yrotation
											JOINT LeftHandMiddle3
											{
												OFFSET 3.56744 0.00000 0.00000
												CHANNELS 3 Zrotation Xrotation Yrotation
												End site
												{
													OFFSET 0.00000 0.00000 0.00000
												}
											}
										}
									}
									JOINT LeftHandRing1
									{
										OFFSET 12.69180 0.00000 -3.06433
										CHANNELS 3 Zrotation Xrotation Yrotation
										JOINT LeftHandRing2
										{
											OFFSET 5.62556 0.00000 0.00000
											CHANNELS 3 Zrotation Xrotation Yrotation
											JOINT LeftHandRing3
											{
												OFFSET 3.56744 0.00000 0.00000
												CHANNELS 3 Zrotation Xrotation Yrotation
												End site
												{
													OFFSET 0.00000 0.00000 0.00000
												}
											}
										}
									}
									JOINT LeftHandPinky1
									{
										OFFSET 11.11390 0.00000 -6.03719
										CHANNELS 3 Zrotation Xrotation Yrotation
										JOINT LeftHandPinky2
										{
											OFFSET 4.52789 0.00000 0.00000
											CHANNELS 3 Zrotation Xrotation Yrotation
											JOINT LeftHandPinky3
											{
												OFFSET 2.46976 0.00000 0.00000
												CHANNELS 3 Zrotation Xrotation Yrotation
												End site
												{
													OFFSET 0.00000 0.00000 0.00000
												}
											}
										}
									}
								}
							}
						}
					}
					JOINT pCube4
					{
						OFFSET 0.00000 10.91090 1.10792
						CHANNELS 3 Zrotation Xrotation Yrotation
						End site
						{
							OFFSET 0.00000 0.00000 0.00000
						}
					}
				}
			}
		}
	}
	JOINT RightUpLeg
	{
		OFFSET -9.98441 0.00000 0.00000
		CHANNELS 3 Zrotation Xrotation Yrotation
		JOINT RightLeg
		{
			OFFSET 0.00000 -42.11790 0.00000
			CHANNELS 3 Zrotation Xrotation Yrotation
			JOINT RightFoot
			{
				OFFSET 0.00000 -45.00020 -0.00001
				CHANNELS 3 Zrotation Xrotation Yrotation
				JOINT RightForeFoot
				{
					OFFSET 0.00000 -3.74820 0.00000
					CHANNELS 3 Zrotation Xrotation Yrotation
					JOINT RightToeBase
					{
						OFFSET 0.00000 0.06325 14.43120
						CHANNELS 3 Zrotation Xrotation Yrotation
						End site
						{
							OFFSET 0.00000 0.00000 0.00000
						}
					}
				}
			}
		}
	}
	JOINT LeftUpLeg
	{
		OFFSET 9.98441 0.00000 0.00000
		CHANNELS 3 Zrotation Xrotation Yrotation
		JOINT LeftLeg
		{
			OFFSET 0.00000 -42.11800 0.00000
			CHANNELS 3 Zrotation Xrotation Yrotation
			JOINT LeftFoot
			{
				OFFSET 0.00000 -45.00070 0.00000
				CHANNELS 3 Zrotation Xrotation Yrotation
				JOINT LeftForeFoot
				{
					OFFSET 0.00000 -3.74824 0.00000
					CHANNELS 3 Zrotation Xrotation Yrotation
					JOINT LeftToeBase
					{
						OFFSET 0.00000 0.06325 14.43110
						CHANNELS 3 Zrotation Xrotation Yrotation
						End site
						{
							OFFSET 0.00000 0.00000 0.00000
						}
					}
				}
			}
		}
	}
}
MOTION
Frames: 4
Frame Time: 0.050000
-0.037242038754653976 -0.03855986941056774 0.016173066310214732 -0.002464530462841767 0.03325398806813364 0.028261486175615677 3.498666012314333 3.4354427398885834 -1.9381456024208419 -0.82084499182187 3.4809954418976736 0.3948926691478002 -0.6947308305956656 -0.8001662470851795 -0.260956334212387 -0.07585978362097612 0.00048204001124859536 -0.5013315704163158 -0.04964693601734951 11.82864828662837 -0.8760025767779254 0.370580786351553 -0.42632899542540476 -1.652214142166446 0.6845698856072231 -16.39462938376241 -0.1171101749934556 -7.6896644350790595 3.0236430905926253 -16.138290606201473 77.68269298782945 5.585428161530335 9.80470472334684 5.987727009656553 1.5030954877965852 96.82627170148136 3.4017815404348197 0.0911089601562089 -0.07347502927866874 4.542974347244907 -0.11004898367548323 -1.5590025937265568 0.00472212898012514 0.0013378614958383863 -56.244779171474356 0.03318971503042362 -0.014540734738582105 -56.19360621029773 -38.769389072307696 0.02644260080319162 0.044329975422371284 0.031843118758299656 -0.013078885507787857 0.01439172133393808 -0.018792705974248626 -0.0337911513998715 -0.001710853237576578 -36.66841092289238 -0.017978918061409898 -0.0006164011538128837 0.002563011044749333 -0.0117378731887897 0.016026114429326402 0.04420407726330525 0.01996923617857668 -0.022028895815712487 -19.78053818312352 0.034417154498983374 0.040189286227197876 -0.02376821036055687 0.014680212541583401 -0.011215456039534494 0.011244856664665542 -0.005856571907331527 -0.03448277433644085 24.029399373473378 -0.04751715207498511 0.001497101233074275 28.902450580718327 -0.012503506448719313 0.04860592636903033 28.856371166573695 -0.01176072609162241 0.0033057211113478374 8.742029680691829 2.2327217239987798 13.012535791971514 -72.3734844519 27.283071481028035 -18.149607846504487 -17.906037238414335 1.4448784639792167 -90.90363859116351 -10.452373576882767 -7.067649611758373 3.4079781953626838 -0.5017786153087803 0.07545403074441223 -8.125439603527663 0.008498914171209286 0.005293055460288142 44.597769513931986 -0.028382865126077073 0.043325167701738325 44.592938173388795 12.46074711446382 -0.04224078463594517 -0.0009930276135283313 -0.0014153869766414136 0.024205676945100424 -0.005028882862487929 -0.04659686195424555 -0.026222381752285074 0.0037352468364284476 11.125585020258757 -0.0023539750923164964 0.0385444242472838 -0.024632492172800474 -0.038292414344161016 0.029159167179937887 -0.018601316035486606 0.004608823228100375 -0.03139056516398998 4.742788151070202 -0.024815287766196778 0.01036061897989925 0.001643111581772261 -0.02478216707777397 0.005055163084247187 0.043186958240322856 0.04565868619127549 -0.03493221895359164 -5.558646580318239 -0.014998689394898575 -0.0052667869039264735 -6.752369073996258 -0.034065817977633306 0.026825651558020656 -6.697700904029652 -0.012438943250141185 0.03014588173801395 -0.01499247943913659 0.025900417674414325 -0.04543449275455809 8.04156197936067 3.4876258548755517 -19.259672635302227 -0.045314020975624335 10.419388729912749 -0.01828927418275592 -5.580975874722518 -15.682627184596603 3.1746225697879615 -0.02074365076013249 -0.00489029832889043 0.005979964546865037 0.01622214981698311 4.742059571054924 -0.0286334640113611 12.45262964985995 -8.189806301713615 6.847277221316069 -0.024650947202766133 46.35789243857531 -0.0236447399476791 -4.339002416809255 -14.728965118659806 -3.84603193965354 0.01666594909408187 0.005734529650255966 -0.04514786101129474 0.0034894324998627478 -10.773959683551832 0.011588395695517568 
-0.03333823421706244 -0.040457373745728456 -0.002172828013324369 -0.00764313774509683 -0.021909956093170087 0.045926755066247466 3.241453239327491 3.6256683089545017 -1.8557996935797596 -0.8552589906385398 3.5136022278173127 0.40957715979745163 -0.6539554742239543 -0.7532292388987927 -0.31972042647995236 -0.13077923043385692 -0.05688188402642866 -0.4991475274028441 -0.05583485581872338 11.659620976888947 -0.7162226471668848 0.2559461939529252 -0.438595047380845 -1.4518802422174946 0.6029385418229752 -16.433221267415025 -0.09724374901860053 -7.200477475095419 2.9297649283785065 -16.04454669969142 77.34093993402786 5.5747925118580275 8.390458683696014 7.97321578623059 2.457969900107721 96.02570726069445 3.9497787620391533 -0.029586188580154105 -0.4935806174165463 4.5784788222161446 -0.1367681324521925 -1.547961912926443 -0.03867699074519994 0.012420544131515087 -56.227568779917036 -0.0063910594732877616 -0.008199823190120307 -56.28204271773634 -38.77915924226045 0.037468084461310315 -0.04888640976981486 0.03632296874131397 -0.015769655540549335 0.0031434885489460026 0.011226598211738003 0.0012626427647181094 0.03217538247978542 -36.69972487524108 0.0018006480953025332 -0.033429758710012546 -0.0024130514439146267 0.023520292586057687 0.03934256864266348 -0.007738324807030497 0.014942475788313505 -0.03066464944045133 -19.793045216772306 0.0052560207836566016 0.014781600765982521 -0.038369904690485526 0.013467081466757033 -0.024353490779031275 0.004703008417476203 -0.028199222738470392 0.03729427348369594 24.01623101247519 0.0043927839902608515 -0.03647529735895704 28.85895044103747 0.016144065194781145 0.001406005689673786 28.89522949630606 0.02162472740688859 -0.0156736793670943 8.433286511355133 2.172016817764626 12.972193539022177 -72.24168035717076 27.130710961837185 -17.313650548953216 -22.500328674446273 3.4555715004700565 -90.72567164148943 -11.939414809442042 -8.018044699142028 4.331030024584456 -0.5071329390835388 0.07737650504093344 -8.171212702022872 -0.019502725705732957 -0.00767032498069739 44.55890542550599 -0.018812102443853843 0.04525895279529063 44.55006754476472 12.46288516262052 -0.034895675719746506 -0.03400546148201582 0.0481254488568008 0.03580915064610081 0.00802047547588157 -0.004493205485690268 -8.295551997930238e-05 0.0008392687327987837 11.11223271272762 -0.0010162284257250575 -0.004348764802213942 0.008607853880662476 0.018405190093890977 0.04185780208967719 0.04327805368623516 -0.012648631847807892 0.011712874510344222 4.822262293671051 0.03070132758321042 0.00311116039288319 0.023493228546821638 0.007633957693372727 -0.024230180383432783 0.0013018924874744775 0.005324788850227275 -0.010065798987569067 -5.630333059699633 0.027993165429931115 -0.006699753875382185 -6.694010920853146 -0.013391899003644145 0.032195438155936236 -6.751967551744382 -0.020914687744899695 -0.014904679103170015 0.0019142862063981718 -0.034483901372823485 -0.028894971724885973 8.093394035776424 3.455412531037306 -19.194539114679287 0.014278769691460656 10.422961961106356 -0.011970933188280141 -5.650201610316054 -15.64479137927273 3.221452044378069 0.04925628002275481 -0.0023194667357350333 -0.03302649282769731 -0.03339429390958332 4.667030689976456 0.01911369099565377 12.459355753233941 -8.231207862853061 6.875761675486122 -0.012418513554365069 46.339592927593486 0.04475449418687351 -4.284622999367624 -14.796353869140452 -3.804312153408514 -0.022884375388826032 0.018425142015951995 0.020965817331197525 -0.02775357788818747 -10.722680311288922 -0.04153370799420915 
-0.0333671270750361 0.009466008648643012 0.016617814786722668 0.021345959097045605 0.02887666409637715 0.0021583535182714596 3.010129156186795 3.693237613313642 -1.8541929010205123 -0.8287869202452285 3.470875515500875 0.3710014099473939 -0.712928405757088 -0.7388881319566305 -0.28144278800774775 -0.15633998672755492 -0.011635194739418356 -0.5262785561003032 -0.1867594136122974 11.454666008675725 -0.6222588272000149 0.29312315499945524 -0.4852009485211391 -1.3894016153749185 0.5237082174029691 -16.442471732035226 -0.14406391856717057 -6.804606599110269 2.8309875075314412 -15.98178454073216 77.27763166316747 5.546508735600097 6.481826227566406 10.3511261867875 3.7113362754458636 93.26823998287186 4.9164931644357095 -0.12046517219630373 -1.0006603976347799 4.5148163381058275 -0.1569801457476258 -1.596671158358622 0.016249050432118363 -0.013469098059595558 -56.214681160177705 -0.0004580951343650295 0.016540928603085 -56.235317897890226 -38.81463971916679 0.03185530335318891 -0.02213169020411788 0.04724861423251266 0.0470412076365252 0.005501445038275875 -0.030818970356690716 0.03382191585848843 -0.047262301853218766 -36.73224965460932 0.02768693220936391 0.03740366022388609 0.010583204931204886 -0.006518349615200838 -0.012203491542715888 -0.04227539585633656 -0.04259382656115572 -0.040495282380348205 -19.773999840737012 0.04412291114128458 0.027636163683580177 0.008538584326935559 0.04798785155709107 0.038032280950768035 -0.003593761701327553 0.009595920016960293 -0.0007752598098329388 24.04659100123186 0.013987281725822016 0.0309138291922021 28.881802881416 0.015594821277458707 0.029553735000286897 28.903641140276992 0.03601471890093762 0.004193189885604402 8.11894499585531 2.094034994843525 13.015635501975778 -72.20871576777704 26.539716001400475 -16.03659151712245 -27.092154837547962 5.19998081377254 -89.41835453003503 -12.990715808000608 -8.447377242300648 4.887211204895357 -0.4965974262061866 0.04545289569191556 -8.109181784822203 0.03951898155246646 0.032819824429709536 44.60768744321009 -0.012473947244323115 0.016888499928267502 44.55299411828369 12.500271426063929 0.015181684127742455 0.030368710621098367 -0.03578011193019822 -0.0419145595305453 0.02841788599201382 0.002101005994156256 0.04261193858643184 -0.015449404896246745 11.088511411292302 -0.04007592171275251 -0.0231079441436383 0.03373644239645411 -0.01746211979181755 -0.03331338191293178 -0.03890543792910041 0.022524367219315996 -0.031004583180899038 4.762523772524425 0.011533910690432182 -0.03193352556805303 -0.01677091098687152 0.045331535584540394 0.047888271442284386 -0.033584830161263506 0.020838460026754574 -0.005896398118653397 -5.6416123565373555 -0.0351903153367626 -0.018193055891750277 -6.726623965919747 0.011902391213555151 0.015432674361468378 -6.741669154929835 -0.013166947312004915 -0.0007366097763025286 0.014133989008811907 -0.03778296282559856 0.04225337261101493 8.07786092838974 3.4648359097254637 -19.17425882839098 -0.02633833977594165 10.375641479642294 0.015792461494731434 -5.659977633512297 -15.653852632881314 3.235667926130726 0.010387404758208861 0.021410364800515506 -0.005844375267255213 -0.04122004669233475 4.713295676822099 0.017988664598743556 12.45715464750508 -8.263450550999972 6.87378587056648 -0.022963884809870695 46.42706542814699 -0.0067399076204956825 -4.350039799265682 -14.777833606398744 -3.881007992019859 -0.022346706285248385 -0.0350063726416162 -0.041798318088136284 -0.03749533629014546 -10.725460910772298 0.0017042075122111506 
-0.03860944796164976 0.04105006166572588 0.02533108069773279 0.04284364716349888 0.02300144900863679 -0.04596474320531847 2.9457096797142728 3.8633160694087936 -1.8451535659973075 -0.8853957528468043 3.541149297744428 0.4122018521534919 -0.7193570284106572 -0.7273345762817458 -0.3245324558753227 -0.2248873268919105 -0.04800678855661065 -0.521444930375706 -0.2320130442883345 11.301615114927333 -0.5726899223176318 0.23370552298896496 -0.614231658985328 -1.3392568971206886 0.48265249281780315 -16.513620164850884 -0.1737630153677062 -6.59090951041893 2.724930590288772 -15.942985125981819 77.38117737103802 5.675530028614696 4.895348188324104 12.180286940936226 4.801818681849958 89.78388533589136 6.29837450393619 -0.16843491011881778 -1.534350984593089 4.490406456054069 -0.16775072216857856 -1.5511337887206142 -0.040202208825818764 -0.0021401639750326922 -56.26743206999858 -0.04727261369853712 -0.02220127081750521 -56.19099146773979 -38.7662263456401 0.0199452190259718 -0.04076414388804938 0.0413694591954285 1.8634975847369533e-05 0.048162246236992785 0.039157991639423705 0.0004959114065719044 -0.031699947374323134 -36.702681051882756 0.018863405341881016 -0.018360031336906765 -0.00778869741055478 -0.03913221065325125 0.007506138417373564 0.016756642318930107 0.03293826540859949 -0.02982434383284763 -19.80513251979671 -0.023486462042788425 -0.03340718120311913 -0.0057319904898714075 -0.010739823089340775 -0.008223216032088027 -0.024538334099639 -0.03861852579312633 0.040640623189482285 24.024330077047168 0.04330314061675759 -0.030743355779135693 28.876085662712512 0.04900827182369112 0.0266380650760375 28.839269048697968 0.028835583496303756 -0.04693393497484829 7.92544885500856 2.040583341603633 13.00622880303559 -72.30460395341123 26.09250020978762 -14.865672777755387 -30.377052143195776 6.398470718880472 -87.67615292608953 -13.960231826931388 -8.287340164822348 5.0578229852336305 -0.48479071733252665 0.06722953422010042 -8.094445468639359 0.024622298405297213 -0.012979658333553903 44.545455605633045 -0.04036073890995305 0.048880897332500915 44.56663964724837 12.423426499830349 0.016231293623199954 0.0373627191353406 -0.027353971549932896 -0.02668219632214786 -0.03297650050904088 0.025671769273939684 0.009872871432883528 -0.024508606107317372 11.075302997731951 -0.0026818458359434577 0.027371138099027352 0.011533298214250884 -0.015707878153833836 -0.0007791806904339563 0.0025828427806923763 -0.030376143231628717 0.02740343089889466 4.793472443924622 -0.018146427398881494 -0.047474590497481914 -0.016200720247806197 0.0398956759249461 -0.014913433211668919 -0.027856069748934648 -0.035122216700106075 0.028498319925118754 -5.580917879202598 -0.0008842914170977174 -0.011899160398844628 -6.721045474941318 -0.017627371446027516 0.01610393847859949 -6.760741296420551 -0.030056811934300248 0.049476322869163356 0.025156676518635387 0.02741020362606429 0.007334587898066337 8.063284405431009 3.466865252215007 -19.237975943791103 0.006079789681139831 10.367867852392912 -0.028191855841976813 -5.648604027353138 -15.625047697292997 3.2167370655263308 0.0344020230571056 -0.03726485003634018 0.0015971595732537946 -0.04930322310560927 4.716818973642464 -0.03913612676244765 12.451312370994126 -8.21491339394347 6.878810478842768 -0.008248751310945218 46.426004446109 -0.007989472046710987 -4.354234897542389 -14.796862173822618 -3.8731545140142 -0.030918946641030166 0.031113870490064446 -0.0278029382415789 0.029097210638074345 -10.784767094065195 -0.0219315833868193 
